PathFileType	4	(X/Y/Z)	C:\Users\Basilio\Documents\Thesis Gigler\squatting_fais\c3dfiles\040\SLS_pre_back3\markers_experimental.trc
DataRate	CameraRate	NumFrames	NumMarkers	Units	OrigDataRate	OrigDataStartFrame	OrigNumFrames
200.000000	200.000000	4	63	mm	200.000000	528	1410
Frame#	Time	FHD			LBHD			RBHD			C7			T10			CLAV			LSHO			LUUPA			LMUPA			LDUPA			LLEP			LMEP			LRAD			LUL			LRFIN			RSHO			RUPA1			RMUPA			RDUPA			RLEP			RMEP			RRAD			RUL			RUFIN			LASI			RASI			USACR			LSACR			RSACR			LTHI1			LTHI2			LTHI3			LTHI4			LLFC			LMFC			LTIB1			LTIB2			LTIB3			LTIB4			LLMAL			LMMAL			LHEE			LMT1			LMT2			LMT5			RTHI			RTHI2			RTHI3			RTHI4			RLFC			RMFC			RTIB1			RTIB2			RTIB3			RTIB4			RLMAL			RMMAL			RHEE			RMT1			RMT2			RMT5			*61			*62			
		X1	Y1	Z1	X2	Y2	Z2	X3	Y3	Z3	X4	Y4	Z4	X5	Y5	Z5	X6	Y6	Z6	X7	Y7	Z7	X8	Y8	Z8	X9	Y9	Z9	X10	Y10	Z10	X11	Y11	Z11	X12	Y12	Z12	X13	Y13	Z13	X14	Y14	Z14	X15	Y15	Z15	X16	Y16	Z16	X17	Y17	Z17	X18	Y18	Z18	X19	Y19	Z19	X20	Y20	Z20	X21	Y21	Z21	X22	Y22	Z22	X23	Y23	Z23	X24	Y24	Z24	X25	Y25	Z25	X26	Y26	Z26	X27	Y27	Z27	X28	Y28	Z28	X29	Y29	Z29	X30	Y30	Z30	X31	Y31	Z31	X32	Y32	Z32	X33	Y33	Z33	X34	Y34	Z34	X35	Y35	Z35	X36	Y36	Z36	X37	Y37	Z37	X38	Y38	Z38	X39	Y39	Z39	X40	Y40	Z40	X41	Y41	Z41	X42	Y42	Z42	X43	Y43	Z43	X44	Y44	Z44	X45	Y45	Z45	X46	Y46	Z46	X47	Y47	Z47	X48	Y48	Z48	X49	Y49	Z49	X50	Y50	Z50	X51	Y51	Z51	X52	Y52	Z52	X53	Y53	Z53	X54	Y54	Z54	X55	Y55	Z55	X56	Y56	Z56	X57	Y57	Z57	X58	Y58	Z58	X59	Y59	Z59	X60	Y60	Z60	X61	Y61	Z61	X62	Y62	Z62	X63	Y63	Z63	

529	2.64	-134.6933135986328	1759.96484375	-1252.6669921875	-259.4929504394532	1710.344848632813	-1293.4287109375	-313.5991516113282	1674.555786132813	-1161.521484375	-330.0967407226563	1558.231201171875	-1207.454223632813	-399.1670532226564	1252.212524414063	-1170.897705078125	-207.4549255371094	1478.482543945313	-1207.881958007813	-258.0588073730469	1526.76953125	-1356.550170898438	-111.5737686157227	1454.907104492188	-1433.28125	-78.29798126220705	1466.705932617188	-1397.798706054688	-44.73092651367188	1434.845092773438	-1437.613159179688	8.70683002471924	1400.99951171875	-1438.796264648438	-7.971384048461916	1346.359985351563	-1403.346069335938	265.7700500488282	1382.5576171875	-1303.111206054688	282.3163452148438	1396.544799804688	-1376.180053710938	357.9078369140626	1381.005981445313	-1289.457275390625	-232.3074188232422	1529.632446289063	-1063.94775390625	-91.34262084960939	1424.010498046875	-995.1939086914065	-58.77610015869142	1439.8525390625	-1027.047729492188	-27.90925788879395	1395.015014648438	-1000.577819824219	30.31833076477051	1372.43603515625	-1014.407531738281	3.455868005752564	1316.643310546875	-1057.230224609375	268.6997985839844	1357.922729492188	-1190.442749023438	288.9861145019532	1342.43310546875	-1116.935546875	362.6844177246094	1355.90625	-1204.230224609375	-255.1405029296876	1053.921020507813	-1282.851196289063	-241.5986328125001	1047.302612304688	-1054.855590820313	-426.9095764160157	1119.677490234375	-1158.81884765625	-439.8211364746095	1090.526611328125	-1187.284301757813	-434.9456176757814	1089.4873046875	-1130.59130859375	-340.4100036621094	796.4820556640627	-1334.613037109375	-288.9661254882813	729.3134765625001	-1333.253173828125	-243.9562377929688	740.9501342773439	-1335.51123046875	-300.5492858886719	673.9796752929689	-1316.639526367188	-263.8551330566407	547.3822631835939	-1295.797485351563	-265.4001770019532	538.5702514648439	-1165.30712890625	-243.9445495605469	323.9310302734376	-1235.799926757813	-320.7275085449219	291.2912292480469	-1270.468017578125	-279.2538146972657	280.5899047851563	-1255.445556640625	-278.6394653320313	205.5210113525391	-1213.817016601563	-355.0132751464844	121.7791137695313	-1217.693359375	-317.3340148925782	144.2464599609375	-1138.826049804688	-415.0411682128907	95.38253021240236	-1160.19482421875	-201.3064575195313	63.85283279418947	-1138.383544921875	-201.8954620361329	54.4147071838379	-1184.31591796875	-253.5838165283204	33.83004760742188	-1229.411499023438	-320.5577697753907	786.9001464843752	-987.573913574219	-293.8409118652344	725.6317749023439	-992.396667480469	-262.1838989257813	723.7723999023439	-998.4405517578127	-332.0804138183594	652.7648925781251	-995.0906982421877	-352.7661743164063	543.3994140625001	-1002.660095214844	-362.7677917480469	534.9343261718751	-1129.996826171875	-499.6910095214845	432.7546386718751	-1018.53076171875	-592.1614379882814	483.1251220703126	-992.1545410156252	-584.3045654296876	437.4530029296876	-1000.85888671875	-627.2458496093751	408.6132202148439	-1030.861450195313	-753.5868530273439	427.3653869628907	-1007.745300292969	-734.2681884765626	415.526336669922	-1095.064575195313	-803.0007324218752	484.8238830566407	-1065.079467773438	-778.152282714844	266.0135803222657	-1089.704956054688	-781.2139282226565	263.9701538085938	-1049.69091796875	-818.5681762695315	297.0588684082032	-999.9328613281252	nan	nan	nan	nan	nan	nan	
530	2.645	-134.7359619140625	1759.596557617188	-1253.122314453125	-259.2147216796876	1709.902587890625	-1294.012451171875	-313.4350585937501	1673.986450195313	-1162.123291015625	-329.9180908203126	1557.92529296875	-1208.014404296875	-399.3667297363282	1251.94970703125	-1170.89501953125	-207.4765777587891	1477.91259765625	-1208.158203125	-257.7110900878907	1526.134887695313	-1357.152099609375	-111.3648223876953	1454.233642578125	-1433.596069335938	-77.52124023437501	1465.739990234375	-1398.091674804688	-44.46173858642579	1434.247924804688	-1437.859008789063	9.099331855773928	1400.398803710938	-1438.929565429688	-7.653091430664064	1345.846557617188	-1403.732177734375	266.1207885742188	1381.785400390625	-1303.820678710938	282.8280639648438	1396.12158203125	-1376.907348632813	358.3553161621094	1380.19189453125	-1290.042358398438	-232.0707550048829	1529.644165039063	-1064.455078125	-91.26881408691408	1423.853515625	-995.4615478515627	-58.40717697143556	1440.02685546875	-1027.559814453125	-27.77879714965821	1394.835571289063	-1000.850402832031	30.38587951660157	1372.369018554688	-1014.583190917969	3.777010679244996	1316.439208984375	-1057.380004882813	268.9639282226563	1357.166381835938	-1190.521484375	288.8096923828126	1341.594848632813	-1117.054077148438	362.5704040527344	1355.52978515625	-1204.345825195313	-255.3608398437501	1053.745727539063	-1282.416381835938	-242.1575012207032	1046.973510742188	-1054.39794921875	-427.2471923828126	1119.252563476563	-1158.664184570313	-440.0902099609376	1090.240234375	-1187.1484375	-435.6610412597657	1089.38134765625	-1130.426391601563	-340.5680847167969	796.5481567382815	-1334.455688476563	-288.6687622070313	729.1194458007814	-1333.16064453125	-243.7828369140626	740.8936157226564	-1335.39453125	-300.2596130371094	673.7911376953126	-1316.555419921875	-263.2625122070313	547.2614135742189	-1295.751220703125	-264.6999511718751	538.2686767578126	-1165.378784179688	-243.8668212890626	324.1695251464844	-1235.770141601563	-320.5027770996094	291.2742614746094	-1270.537841796875	-279.2187194824219	280.5842895507813	-1255.612182617188	-278.9578857421876	206.281723022461	-1213.87939453125	-355.0060424804688	121.6848068237305	-1217.775634765625	-317.3166198730469	144.2684783935547	-1138.93701171875	-415.0356445312501	95.3596878051758	-1160.224487304688	-201.3321228027344	63.93847656250001	-1138.419555664063	-201.8205261230469	54.48803329467775	-1184.406616210938	-253.4807128906251	33.7502784729004	-1229.332641601563	-321.7269287109376	786.2490234375002	-987.6948242187502	-294.4683837890626	725.5245361328126	-992.5001220703127	-262.7708435058594	723.3499145507814	-998.2319946289065	-332.7761840820313	652.4032592773439	-995.0305175781252	-353.4421997070313	542.9428710937501	-1002.620300292969	-363.2832641601563	534.5172729492189	-1130.119262695313	-499.9580383300782	432.766082763672	-1018.435974121094	-592.8690795898439	482.740936279297	-992.1051025390627	-584.5736694335939	436.9681091308595	-1000.946350097656	-627.6555175781251	408.4243774414064	-1030.832641601563	-754.0172119140626	427.1784973144532	-1007.641540527344	-734.8026123046876	415.1979980468751	-1094.869384765625	-803.292663574219	484.3992919921876	-1064.77294921875	-778.977966308594	265.1619262695313	-1089.508178710938	-781.7442016601565	264.0305175781251	-1049.347045898438	-819.2264404296877	296.9238891601563	-999.861999511719	nan	nan	nan	nan	nan	nan	
531	2.65	-134.2971954345703	1758.972778320313	-1253.235107421875	-259.0592956542969	1709.528930664063	-1294.543823242188	-313.2633972167969	1673.572875976563	-1162.760864257813	-329.7119445800782	1557.706787109375	-1208.468994140625	-399.6471252441407	1251.829956054688	-1170.938720703125	-207.1792144775391	1477.46240234375	-1208.717895507813	-257.4106445312501	1525.583862304688	-1357.726318359375	-111.1115112304688	1453.486572265625	-1433.933349609375	-77.35111236572267	1465.3486328125	-1398.483642578125	-44.21442413330079	1433.625854492188	-1438.169799804688	9.710502624511721	1399.570434570313	-1439.147583007813	-7.323163509368898	1345.372436523438	-1404.027587890625	266.1791381835938	1381.440307617188	-1304.532470703125	283.4100036621094	1395.43408203125	-1377.336669921875	359.0462646484376	1380.2080078125	-1290.878051757813	-231.8102264404297	1529.52392578125	-1065.0205078125	-91.23313140869142	1424.000610351563	-995.8189086914065	-58.38809967041017	1439.894287109375	-1027.94873046875	-27.65368270874024	1394.863525390625	-1001.150268554688	30.46073532104493	1373.031860351563	-1015.124938964844	3.933542013168336	1316.188354492188	-1057.4541015625	269.5955810546876	1356.559448242188	-1190.552001953125	288.3134460449219	1340.410888671875	-1117.416381835938	362.8698120117188	1354.896850585938	-1204.39599609375	-255.5514678955079	1053.55322265625	-1282.08740234375	-242.8384552001954	1046.795166015625	-1053.941650390625	-427.5956420898439	1119.027465820313	-1158.53662109375	-440.377899169922	1089.861083984375	-1187.0361328125	-436.1536560058595	1089.180908203125	-1130.279052734375	-340.4619750976563	796.2183227539065	-1334.362182617188	-288.5122680664063	728.9854125976564	-1333.14501953125	-243.5236206054688	740.8149414062501	-1335.273681640625	-299.7199707031251	673.5459594726564	-1316.097290039063	-262.7659301757813	547.1745605468751	-1295.713500976563	-264.1626892089844	538.0186157226564	-1165.414306640625	-243.5741424560547	323.7209472656251	-1235.813354492188	-320.2073364257813	291.2877197265626	-1270.60791015625	-278.8647155761719	280.5255737304688	-1255.739624023438	-278.7821350097657	205.546615600586	-1214.122314453125	-355.0974426269532	121.7203521728516	-1217.897705078125	-317.3201904296876	144.5145568847657	-1139.071411132813	-415.0630187988282	95.36891174316408	-1160.293212890625	-201.317367553711	63.93898010253908	-1138.474853515625	-201.8538970947266	54.49699783325197	-1184.375	-253.5476684570313	33.71054077148438	-1229.446533203125	-321.8739929199219	786.253356933594	-987.325622558594	-295.3481445312501	724.8999023437501	-992.4091796875002	-263.2487182617188	723.2168579101564	-997.8997192382815	-333.3059082031251	652.1500244140626	-995.0735473632815	-353.6015319824219	542.9101562500001	-1002.248413085938	-364.7663879394532	535.1527099609376	-1130.262573242188	-501.3066711425782	432.030487060547	-1018.726623535156	-593.4833984375001	482.3995056152345	-991.9163818359377	-585.3090820312501	436.7814025878907	-1000.654418945313	-628.3405151367189	407.4769287109376	-1031.444702148438	-754.6684570312501	426.5664367675782	-1007.684509277344	-735.4058837890626	414.936981201172	-1094.691162109375	-803.6499633789065	484.2640380859376	-1064.53564453125	-779.8196411132815	265.3075256347657	-1089.459594726563	-783.255554199219	263.5775146484376	-1048.803466796875	-820.2098388671877	296.5081787109376	-999.9807128906252	nan	nan	nan	nan	nan	nan	
532	2.655	-134.4102172851563	1758.793823242188	-1253.894653320313	-258.8671569824219	1709.115234375	-1295.0107421875	-312.8272399902344	1673.051025390625	-1163.2939453125	-329.5207824707032	1557.406494140625	-1208.955078125	-400.2142944335939	1251.479614257813	-1171.102172851563	-206.7966918945313	1477.108764648438	-1209.187133789063	-257.6125183105469	1525.182373046875	-1358.081176757813	-110.739501953125	1452.841186523438	-1434.288452148438	-77.65062713623048	1465.1416015625	-1398.881713867188	-44.03484725952149	1433.062133789063	-1438.453002929688	9.851390838623049	1399.123901367188	-1439.44482421875	-6.889178752899172	1344.528686523438	-1404.148559570313	266.6541442871094	1381.031982421875	-1305.00537109375	283.8965148925782	1394.849853515625	-1378.007202148438	359.6426696777344	1379.490356445313	-1291.667358398438	-231.5345611572266	1529.34228515625	-1065.436889648438	-90.99978637695314	1424.10791015625	-996.1646728515627	-58.14922332763673	1439.544555664063	-1028.197509765625	-27.38328170776368	1394.765258789063	-1001.386169433594	30.80637550354005	1372.391479492188	-1014.936950683594	4.39418649673462	1316.173828125	-1057.67724609375	269.9690856933594	1355.780151367188	-1190.677001953125	288.9067077636719	1339.8984375	-1117.545288085938	363.0899658203126	1354.083251953125	-1204.374389648438	-255.702621459961	1053.340209960938	-1281.734619140625	-243.3659362792969	1046.537109375	-1053.366088867188	-427.7937622070314	1119.080200195313	-1158.267700195313	-440.6421813964845	1089.478515625	-1186.931030273438	-436.5108337402345	1088.809448242188	-1130.180419921875	-340.4352722167969	795.9893188476565	-1334.246459960938	-288.1628417968751	728.7510986328126	-1333.1396484375	-243.3425750732422	740.7492065429689	-1335.106323242188	-299.3862609863282	673.4328002929689	-1316.072509765625	-262.2058715820313	547.0595703125001	-1295.731201171875	-264.0184326171876	538.0297851562501	-1165.485961914063	-243.4322662353516	323.4894714355469	-1235.761840820313	-320.0998535156251	291.3453674316407	-1270.6435546875	-278.5819396972657	280.5087585449219	-1255.90185546875	-278.4964294433594	205.2157440185547	-1213.936889648438	-355.0558166503907	121.5765991210938	-1218.012573242188	-317.3173828125001	144.4943237304688	-1139.270629882813	-415.0043334960939	95.32666015625001	-1160.365356445313	-201.3547058105469	63.97134017944337	-1138.527954101563	-202.0483703613282	53.80334091186525	-1184.566284179688	-253.6268768310547	33.65797424316407	-1229.430419921875	-322.7836914062501	785.634460449219	-987.1691894531252	-296.0836791992188	724.6204833984376	-992.2274169921877	-263.7384643554688	722.7520751953126	-997.7810058593752	-334.0867919921876	651.9410400390626	-995.162536621094	-354.2386779785157	542.7039184570314	-1002.28125	-365.2724914550782	534.9334106445314	-1130.213623046875	-502.2034301757814	431.4146118164064	-1018.727111816406	-593.9895019531251	482.053924560547	-991.8267211914065	-585.7695922851564	436.3598937988282	-1000.730346679688	-628.4342651367189	407.9146423339845	-1030.505004882813	-755.3955688476564	426.4641723632814	-1007.474609375	-735.9451904296876	414.5906372070314	-1094.516967773438	-804.1060180664065	483.9144897460939	-1064.28125	-780.4573364257815	264.9944458007813	-1089.333374023438	-783.724548339844	263.4049377441407	-1048.884887695313	-820.8602294921877	296.3860168457032	-999.7099609375002	nan	nan	nan	nan	nan	nan	
